<?xml version="1.0" encoding="UTF-8" standalone="no"?>
<svg width="180px" height="16px" viewBox="0 0 180 16" version="1.1" xmlns="http://www.w3.org/2000/svg" xmlns:xlink="http://www.w3.org/1999/xlink">
    <!-- Generator: Sketch 40.1 (33804) - http://www.bohemiancoding.com/sketch -->
    <title>LogoWhiteHeaderDesktop</title>
    <desc>Created with Sketch.</desc>
    <defs>
        <polygon id="path-1" points="0 15.2 179.3168 15.2 179.3168 0.1104 0 0.1104"></polygon>
    </defs>
    <g id="Guidelines" stroke="none" stroke-width="1" fill="none" fill-rule="evenodd">
        <g id="Header&amp;Navbar---Responsive" transform="translate(-466.000000, -1617.000000)">
            <g id="Group-3-Copy-7" transform="translate(426.000000, 1586.000000)">
                <g id="LogoWhiteHeaderDesktop" transform="translate(40.000000, 31.000000)">
                    <path d="M123.98904,15.61312 L126.07784,15.61312 L127.62424,12.49632 L127.67384,12.39712 L127.78504,12.39712 L134.84824,12.39712 L134.95864,12.39712 L135.00904,12.49552 L136.57624,15.61312 L138.68504,15.61312 L131.29624,1.01872 L123.98904,15.61312 Z M128.43304,10.38912 L131.15704,4.95552 L131.31624,4.63632 L131.47624,4.95552 L134.19944,10.38912 L134.32984,10.64832 L134.04024,10.64832 L128.59304,10.64832 L128.30344,10.64832 L128.43304,10.38912 Z" id="Fill-1" fill="#FFFFFF"></path>
                    <g id="Group-12" transform="translate(0.000000, 0.689600)">
                        <path d="M25.2408,6.91912 L25.4192,6.91912 L29.7176,6.91912 C31.548,6.91912 32.5984,6.04712 32.5984,4.52712 C32.5984,3.05672 31.5216,2.17832 29.7176,2.17832 L25.4192,2.17832 L25.2408,2.17832 L25.2408,2.35752 L25.2408,6.74072 L25.2408,6.91912 L25.2408,6.91912 Z M29.8664,0.38712 C31.3464,0.38712 32.516,0.76552 33.3424,1.51112 C34.1784,2.26632 34.6024,3.25192 34.6024,4.44232 C34.6024,6.44072 33.4448,7.91032 31.5056,8.37512 L31.2472,8.43672 L31.4016,8.65272 L35.8808,14.92312 L33.4904,14.92312 L29.0544,8.70072 L29.0008,8.62552 L28.9088,8.62552 L25.4192,8.62552 L25.2408,8.62552 L25.2408,8.80392 L25.2408,14.92312 L23.2576,14.92312 L23.2576,0.38712 L29.8664,0.38712 L29.8664,0.38712 Z" id="Fill-2" fill="#FFFFFF"></path>
                        <mask id="mask-2" fill="white">
                            <use xlink:href="#path-1"></use>
                        </mask>
                        <g id="Clip-5"></g>
                        <polygon id="Fill-4" fill="#FFFFFF" mask="url(#mask-2)" points="47.1552 14.9232 49.1384 14.9232 49.1384 0.3872 47.1552 0.3872"></polygon>
                        <path d="M63.8192,6.98288 L63.9976,6.98288 L67.8704,6.98288 C69.7408,6.98288 70.8576,6.08048 70.8576,4.57008 C70.8576,3.05008 69.7688,2.17888 67.8704,2.17888 L63.9976,2.17888 L63.8192,2.17888 L63.8192,2.35728 L63.8192,6.80448 L63.8192,6.98288 M68.0616,0.38688 C69.5616,0.38688 70.7448,0.77888 71.5816,1.55488 C72.4312,2.30368 72.8616,3.30368 72.8616,4.52768 C72.8616,5.76768 72.4304,6.79728 71.5768,7.58928 C70.7384,8.38688 69.5888,8.77408 68.0616,8.77408 L63.9976,8.77408 L63.8192,8.77408 L63.8192,8.95328 L63.8192,14.92368 L61.836,14.92368 L61.836,0.38688 L68.0616,0.38688" id="Fill-6" fill="#FFFFFF" mask="url(#mask-2)"></path>
                        <path d="M152.03104,0.1104 C153.75824,0.1104 155.30064,0.5 156.61824,1.268 L156.61824,3.1944 C155.15664,2.3648 153.62944,1.944 152.07344,1.944 C150.05664,1.944 148.85264,2.7192 148.85264,4.0168 C148.85264,4.7688 149.32064,5.1632 149.80944,5.5096 C150.00944,5.6328 150.37024,5.764 150.71904,5.8904 C150.88144,5.9496 151.03504,6.0056 151.17344,6.0608 L152.87264,6.5496 C154.05184,6.9056 154.68064,7.1608 155.56384,7.6424 C156.85824,8.3312 157.49744,9.3792 157.57584,10.932 C157.57584,12.2424 157.04944,13.2896 156.01104,14.0424 C154.95264,14.8104 153.61344,15.2 152.03104,15.2 C149.82464,15.2 148.05104,14.7064 146.61344,13.6912 L146.61344,11.6304 C147.17344,12.0608 147.88544,12.4384 148.77664,12.78 C149.81344,13.1688 150.86624,13.3664 151.90304,13.3664 C154.07184,13.3664 155.52864,12.4048 155.52864,10.9744 C155.52864,10.4064 155.27344,9.8672 154.80864,9.4568 C154.62384,9.2952 154.35824,9.1392 154.00064,8.9832 C153.35744,8.6816 152.94864,8.564 152.13504,8.3296 L151.93104,8.2704 L151.63264,8.1856 C150.84224,7.9624 150.17744,7.7504 149.71184,7.5736 C149.31584,7.4224 148.86464,7.196 148.25344,6.844 C147.25184,6.216 146.80544,5.3376 146.80544,3.9952 C146.80544,1.5992 148.80784,0.1104 152.03104,0.1104" id="Fill-7" fill="#FFFFFF" mask="url(#mask-2)"></path>
                        <polygon id="Fill-8" fill="#FFFFFF" mask="url(#mask-2)" points="11.7296 0.38712 10.8944 2.17832 7.0768 2.17832 6.8984 2.17832 6.8984 2.35752 6.8984 14.92312 4.9152 14.92312 4.9152 2.35752 4.9152 2.17832 4.736 2.17832 0 2.17832 0 0.38712"></polygon>
                        <polygon id="Fill-9" fill="#FFFFFF" mask="url(#mask-2)" points="114.77768 0.38712 113.94248 2.17832 106.82648 2.17832 106.64728 2.17832 106.64728 2.35752 106.64728 6.08072 106.64728 6.25912 106.82648 6.25912 113.37128 6.25912 113.37128 8.05112 106.82648 8.05112 106.64728 8.05112 106.64728 8.22952 106.64728 12.95352 106.64728 13.13192 106.82648 13.13192 115.18008 13.13192 115.18008 14.92312 104.66408 14.92312 104.66408 0.38712"></polygon>
                        <polygon id="Fill-10" fill="#FFFFFF" mask="url(#mask-2)" points="94.06936 0.38712 93.23416 2.17832 89.41976 2.17832 89.24056 2.17832 89.24056 2.35752 89.24056 14.92312 87.25816 14.92312 87.25816 2.35752 87.25816 2.17832 87.07896 2.17832 82.34296 2.17832 82.34296 0.38712"></polygon>
                        <polygon id="Fill-11" fill="#FFFFFF" mask="url(#mask-2)" points="178.92776 0.38712 178.09256 2.17832 170.96296 2.17832 170.78456 2.17832 170.78456 2.35752 170.78456 6.08072 170.78456 6.25912 170.96296 6.25912 177.50856 6.25912 177.50856 8.05112 170.96296 8.05112 170.78456 8.05112 170.78456 8.22952 170.78456 12.95352 170.78456 13.13192 170.96296 13.13192 179.31656 13.13192 179.31656 14.92312 168.80136 14.92312 168.80136 0.38712"></polygon>
                    </g>
                </g>
            </g>
        </g>
    </g>
</svg>